<svg aria-hidden="true" style="position:absolute;width:0;height:0;overflow:hidden" xmlns="http://www.w3.org/2000/svg">
  <defs>
    <symbol id="icon-burger_menu" viewBox="0 0 44 32">
      <path d="M.667 30.053v-2.667h42.667v2.667H.667zm0-12.72v-2.667h42.667v2.667H.667zm0-12.72V1.946h42.667v2.667H.667z"/>
    </symbol>
    <symbol id="icon-drop_menu_arrow" viewBox="0 0 58 32">
      <path stroke-linecap="round" stroke-width="3.2" d="m3.2 3.2 25.6 25.6L54.4 3.2"/>
    </symbol>
    <symbol id="icon-facebook_hero_desk" viewBox="0 0 5 32">
      <path d="M2.721 26.571C1.219 26.571 0 27.787 0 29.285s1.219 2.714 2.721 2.714a2.723 2.723 0 0 0 2.667-2.171h-1.85v.543h-.816v-.543h-.68a.952.952 0 0 1-.952-.95v-.679h.816v.543c0 .149.122.271.272.271h.544v-.814h.816v.814h1.891a2.718 2.718 0 0 0-2.707-2.443zM1.054 22.133c0 .421.261.599.704.599h.014v-1.019h.357v1.019h2.158v.379H2.129v.485h-.357v-.485H1.74c-.658 0-1.024-.379-1.024-.937 0-.183.037-.384.105-.539l.315.069-.018.064a1.055 1.055 0 0 0-.064.366zm.717-2.95v-.379h2.514v.379h-.507c.338.197.558.535.558.969 0 .686-.549 1.175-1.307 1.175-.763 0-1.307-.494-1.307-1.175 0-.434.224-.777.567-.969h-.517zm2.204.896c0-.512-.393-.901-.946-.901s-.946.389-.946.901.398.864.946.864c.553 0 .946-.357.946-.864zm.361-3.24c0 .736-.558 1.298-1.307 1.298s-1.307-.562-1.307-1.298c0-.585.352-1.088.928-1.221v.393c-.357.119-.576.439-.576.827 0 .53.402.914.955.914.558 0 .955-.389.955-.914a.846.846 0 0 0-.576-.827v-.393c.585.137.928.645.928 1.221zm-2.615-3.024c0-.782.594-1.289 1.422-1.257v2.153c.521-.037.837-.407.837-.914 0-.347-.146-.635-.439-.786v-.393c.535.21.795.667.795 1.193 0 .745-.53 1.289-1.298 1.289-.763 0-1.317-.535-1.317-1.285zm.357 0c0 .462.297.791.709.878V12.97c-.421.082-.709.393-.709.846zm-.357-3.252c0-.681.544-1.175 1.307-1.175.759 0 1.307.494 1.307 1.179 0 .434-.219.773-.558.965h.507v.379H.764v-.379h1.522a1.082 1.082 0 0 1-.567-.969zm2.254.074c0-.507-.393-.864-.946-.864-.549 0-.946.357-.946.864 0 .512.393.901.946.901s.946-.389.946-.901zM1.721 7.529c0-.718.553-1.298 1.307-1.298s1.307.571 1.307 1.298a1.28 1.28 0 0 1-1.307 1.294 1.281 1.281 0 0 1-1.307-1.294zm.361 0c0 .503.389.91.946.91.553 0 .946-.402.946-.91 0-.512-.393-.914-.946-.914s-.946.407-.946.914zm-.361-3.154c0-.718.553-1.298 1.307-1.298s1.307.571 1.307 1.298a1.28 1.28 0 0 1-1.307 1.294 1.281 1.281 0 0 1-1.307-1.294zm.361 0c0 .503.389.91.946.91.553 0 .946-.402.946-.91 0-.512-.393-.914-.946-.914s-.946.407-.946.914zM4.286.17v.498L3.075 2.012h1.211v.379H.766v-.379h2.126L1.772.787V.289L2.965 1.61 4.286.17z"/>
    </symbol>
    <symbol id="icon-facebook_hero_footer" viewBox="0 0 31 32">
      <path d="M30.642 15.636C30.642 7.005 23.81 0 15.392 0S.142 7.005.142 15.636c0 7.568 5.246 13.869 12.2 15.323V20.327h-3.05v-4.691h3.05v-3.909c0-3.018 2.394-5.473 5.338-5.473h3.813v4.691h-3.05c-.839 0-1.525.704-1.525 1.564v3.127h4.575v4.691h-4.575v10.867c7.701-.782 13.725-7.443 13.725-15.558z"/>
    </symbol>
    <symbol id="icon-instagram_footer" viewBox="0 0 31 32">
      <path d="M8.845 0h12.81c4.88 0 8.845 4.055 8.845 9.046v13.101c0 2.399-.932 4.7-2.591 6.397s-3.909 2.65-6.254 2.65H8.845C3.965 31.194 0 27.139 0 22.148V9.047c0-2.399.932-4.7 2.591-6.397S6.5 0 8.845 0zM8.54 3.119c-1.456 0-2.853.592-3.882 1.645S3.05 7.245 3.05 8.734v13.725c0 3.104 2.455 5.615 5.49 5.615h13.42c1.456 0 2.852-.591 3.882-1.645s1.608-2.481 1.608-3.97V8.734c0-3.104-2.455-5.615-5.49-5.615H8.54zm14.717 2.34c.506 0 .99.205 1.348.571s.558.862.558 1.379-.201 1.013-.558 1.379-.842.571-1.348.571c-.506 0-.99-.205-1.348-.571s-.558-.861-.558-1.379c0-.517.201-1.013.558-1.379s.842-.571 1.348-.571zM15.25 7.798c2.022 0 3.962.822 5.392 2.284s2.233 3.446 2.233 5.514-.803 4.052-2.233 5.514-3.369 2.284-5.392 2.284c-2.022 0-3.962-.822-5.392-2.284s-2.233-3.446-2.233-5.514.803-4.052 2.233-5.514 3.369-2.284 5.392-2.284zm0 3.12c-1.213 0-2.377.493-3.235 1.37s-1.34 2.068-1.34 3.309.482 2.431 1.34 3.309c.858.877 2.022 1.37 3.235 1.37s2.377-.493 3.235-1.37c.858-.878 1.34-2.068 1.34-3.309s-.482-2.431-1.34-3.309a4.522 4.522 0 0 0-3.235-1.37z"/>
    </symbol>
    <symbol id="icon-instagram_hero_desk" viewBox="0 0 5 32">
      <path d="M0 30.493V28.31c0-.831.676-1.507 1.507-1.507H3.69a1.504 1.504 0 0 1 1.507 1.507v2.183c0 .831-.676 1.507-1.507 1.507H1.507A1.504 1.504 0 0 1 0 30.493zm.52.052a.936.936 0 0 0 .935.935h2.287a.934.934 0 0 0 .935-.935v-2.287a.936.936 0 0 0-.935-.935H1.455a.934.934 0 0 0-.935.935v2.287zm.389-2.508a.323.323 0 0 1 .325-.324.325.325 0 0 1 .23.554.325.325 0 0 1-.555-.23zm.39 1.365a1.299 1.299 0 1 1 2.598 0 1.299 1.299 0 0 1-2.598 0zm.52 0a.779.779 0 1 0 1.558 0 .779.779 0 0 0-1.558 0zM.637 23.561c0-.144.105-.254.241-.254.14 0 .245.109.245.254s-.105.254-.245.254c-.136 0-.241-.109-.241-.254zm3.466.184H1.696v-.363h2.407v.363zm-2.455-2.322c0-.543.341-.871.928-.871h1.527v.363H2.646c-.433 0-.652.214-.652.608 0 .49.346.761.875.761h1.234v.363H1.696v-.363h.477c-.324-.162-.525-.442-.525-.862zm2.503-2.6c0 .63-.293 1.068-.801 1.164v-.372c.337-.096.455-.346.455-.792 0-.359-.127-.621-.359-.621-.236 0-.284.267-.394.709-.166.665-.284.954-.678.954-.464 0-.726-.407-.726-.976 0-.564.258-.928.691-1.024v.368c-.245.092-.346.324-.346.648 0 .389.149.617.354.617.193 0 .245-.193.368-.678.153-.617.249-.989.7-.989.494 0 .735.451.735.993zm-.455-3.287.302-.066c.07.131.153.389.153.652 0 .516-.333.862-.967.862H2.037v.464h-.341v-.464h-.578l-.079-.363h.656V15.54h.341v1.081h1.129c.411 0 .648-.184.648-.56 0-.171-.053-.346-.118-.525zm-2-2.491v-.363h2.407v.363h-.486c.324.188.534.512.534.928 0 .656-.525 1.125-1.252 1.125-.731 0-1.252-.473-1.252-1.125 0-.416.214-.744.543-.928h-.494zm2.109.858c0-.49-.376-.862-.906-.862s-.906.372-.906.862.381.827.906.827c.53 0 .906-.341.906-.827zM1.696 9.992v-.363h2.381c.718 0 1.168.438 1.168 1.142 0 .569-.302 1.059-.866 1.177v-.376c.346-.101.543-.403.543-.792 0-.503-.302-.788-.836-.788H3.6c.324.188.534.516.534.928 0 .656-.525 1.125-1.243 1.125-.722 0-1.243-.473-1.243-1.125 0-.407.214-.744.538-.928h-.49zm2.092.858c0-.49-.376-.862-.897-.862s-.897.372-.897.862.381.827.897.827c.521 0 .897-.341.897-.827zm-2.14-3.176c0-.057.004-.114.009-.149h.372a1.466 1.466 0 0 0-.009.153c0 .503.328.853.945.853h1.138v.363H1.696v-.363h.538c-.359-.144-.586-.433-.586-.858zm.048-2.605v-.363h2.407v.363h-.486c.324.188.534.512.534.928 0 .656-.525 1.125-1.252 1.125-.731 0-1.252-.473-1.252-1.125 0-.416.214-.744.543-.928h-.494zm2.109.858c0-.49-.376-.862-.906-.862s-.906.372-.906.862.381.827.906.827c.53 0 .906-.341.906-.827zM1.648 1.245c0-.508.324-.801.893-.801h1.562v.363H2.606c-.407 0-.613.184-.613.543 0 .455.389.678.875.678l1.234-.004v.368H2.605c-.407 0-.613.179-.613.543 0 .451.389.674.875.674h1.234v.363H1.694v-.363h.455c-.311-.158-.503-.398-.503-.783 0-.394.197-.656.551-.753-.333-.153-.551-.416-.551-.827z"/>
    </symbol>
    <symbol id="icon-main_logo" viewBox="0 0 195 32">
      <path d="M5.042 20.565c.274 0 .471.197.471.448a.452.452 0 0 1-.471.459.453.453 0 1 1 0-.907zm-.284 8.584v-6.007h.58v6.007h-.58zM13.417 23.023c1.358 0 2.168.83 2.168 2.304v3.823h-.58v-3.746c0-1.212-.646-1.824-1.708-1.824-1.402 0-2.19 1.038-2.19 2.534v3.036h-.58v-6.007h.58v1.409c.383-.906 1.128-1.529 2.31-1.529zM24.7 28.429l.11.491c-.307.153-.92.349-1.533.349-1.336 0-2.113-.885-2.113-2.403v-3.178H19.96v-.546h1.204v-1.507l.58-.131v1.638h2.946v.546h-2.946v3.156c0 1.18.526 1.878 1.621 1.878.46 0 .909-.12 1.336-.295zM32.04 23.023c1.85 0 3.011 1.365 2.978 3.309h-5.431c.066 1.485 1.095 2.381 2.497 2.381.953 0 1.763-.404 2.168-1.191h.602c-.493 1.169-1.577 1.747-2.781 1.747-1.774 0-3.077-1.245-3.077-3.102 0-1.835 1.281-3.145 3.044-3.145zm0 .546c-1.336 0-2.289.928-2.442 2.217h4.807c-.142-1.289-1.04-2.217-2.365-2.217zM42.698 23.023c.153 0 .296.011.394.033v.579a3.626 3.626 0 0 0-.383-.022c-1.391 0-2.289 1.016-2.289 2.621v2.916h-.58v-6.007h.58v1.496c.35-.939 1.106-1.616 2.278-1.616zM47.978 20.565c.274 0 .471.197.471.448a.452.452 0 0 1-.471.459.453.453 0 1 1 0-.907zm-.285 8.584v-6.007h.58v6.007h-.58zM56.265 23.023c1.708 0 3.088 1.322 3.088 3.124 0 1.791-1.358 3.124-3.088 3.124-1.719 0-3.088-1.332-3.088-3.124 0-1.802 1.391-3.124 3.088-3.124zm0 .556c-1.38 0-2.497 1.059-2.497 2.567 0 1.485 1.106 2.567 2.497 2.567s2.497-1.081 2.497-2.567c0-1.496-1.117-2.567-2.497-2.567zM67.103 23.023c.153 0 .296.011.394.033v.579a3.626 3.626 0 0 0-.383-.022c-1.391 0-2.289 1.016-2.289 2.621v2.916h-.58v-6.007h.58v1.496c.35-.939 1.106-1.616 2.278-1.616zM83.901 20.74h.58v8.41h-.58v-1.442c-.482.939-1.391 1.562-2.529 1.562-1.686 0-2.858-1.322-2.858-3.124s1.183-3.124 2.847-3.124c1.15 0 2.059.623 2.54 1.562V20.74zm-2.453 7.973c1.391 0 2.453-1.07 2.453-2.567 0-1.485-1.062-2.567-2.453-2.567s-2.354 1.081-2.354 2.567.964 2.567 2.354 2.567zM92.415 23.023c1.851 0 3.011 1.365 2.979 3.309h-5.431c.066 1.485 1.095 2.381 2.497 2.381.952 0 1.763-.404 2.168-1.191h.602c-.493 1.169-1.577 1.747-2.781 1.747-1.774 0-3.076-1.245-3.076-3.102 0-1.835 1.281-3.145 3.043-3.145zm0 .546c-1.335 0-2.288.928-2.442 2.217h4.807c-.142-1.289-1.04-2.217-2.365-2.217zM102.602 29.27c-1.555 0-2.617-.721-2.869-1.999h.591c.274 1.016 1.062 1.442 2.267 1.442.996 0 1.818-.393 1.818-1.169 0-.721-.734-.852-1.971-1.169-1.731-.437-2.377-.721-2.377-1.616 0-1.114 1.008-1.736 2.333-1.736 1.303 0 2.245.601 2.507 1.66h-.591c-.274-.754-.996-1.103-1.905-1.103-1.029 0-1.763.437-1.763 1.136 0 .623.57.765 1.982 1.125 1.533.393 2.376.623 2.376 1.66 0 1.19-1.105 1.769-2.397 1.769zM110.043 20.565c.274 0 .471.197.471.448a.45.45 0 0 1-.471.459.453.453 0 1 1 0-.907zm-.285 8.584v-6.007h.58v6.007h-.58zM120.618 23.143h.58v5.941c0 1.802-1.062 2.916-2.793 2.916-1.401 0-2.562-.775-2.902-2.086h.613c.285.95 1.15 1.551 2.278 1.551 1.424 0 2.223-.874 2.223-2.359v-1.409a2.806 2.806 0 0 1-2.519 1.551c-1.686 0-2.858-1.321-2.858-3.113s1.183-3.113 2.858-3.113c1.106 0 2.047.623 2.519 1.562v-1.442zm-2.441 5.548c1.39 0 2.453-1.07 2.453-2.556 0-1.474-1.063-2.556-2.453-2.556s-2.355 1.081-2.355 2.556c0 1.474.964 2.556 2.355 2.556zM129.276 23.023c1.358 0 2.168.83 2.168 2.304v3.823h-.58v-3.746c0-1.212-.646-1.824-1.708-1.824-1.402 0-2.19 1.038-2.19 2.534v3.036h-.58v-6.007h.58v1.409c.383-.906 1.128-1.529 2.31-1.529zM145.645 29.27c-1.555 0-2.617-.721-2.869-1.999h.591c.274 1.016 1.062 1.442 2.267 1.442.996 0 1.818-.393 1.818-1.169 0-.721-.733-.852-1.971-1.169-1.731-.437-2.377-.721-2.377-1.616 0-1.114 1.008-1.736 2.333-1.736 1.303 0 2.245.601 2.508 1.66h-.592c-.274-.754-.996-1.103-1.905-1.103-1.029 0-1.763.437-1.763 1.136 0 .623.57.765 1.982 1.125 1.533.393 2.376.623 2.376 1.66 0 1.19-1.105 1.769-2.397 1.769zM156.951 28.429l.11.491a3.768 3.768 0 0 1-1.533.349c-1.335 0-2.113-.885-2.113-2.403v-3.178h-1.205v-.546h1.205v-1.507l.58-.131v1.638h2.946v.546h-2.946v3.156c0 1.18.526 1.878 1.621 1.878.46 0 .909-.12 1.335-.295zM166.147 23.143h.58v6.007h-.58v-1.409c-.384.896-1.117 1.529-2.289 1.529-1.347 0-2.135-.841-2.135-2.304v-3.823h.58v3.746c0 1.212.613 1.824 1.675 1.824 1.368 0 2.168-1.027 2.168-2.534v-3.036zM177.001 20.74h.58v8.41h-.58v-1.442c-.482.939-1.391 1.562-2.529 1.562-1.686 0-2.858-1.322-2.858-3.124s1.183-3.124 2.847-3.124c1.149 0 2.058.623 2.54 1.562V20.74zm-2.453 7.973c1.391 0 2.453-1.07 2.453-2.567 0-1.485-1.062-2.567-2.453-2.567s-2.354 1.081-2.354 2.567c0 1.485.963 2.567 2.354 2.567zM183.041 20.565c.274 0 .47.197.47.448a.45.45 0 0 1-.47.459.453.453 0 1 1 0-.907zm-.285 8.584v-6.007h.58v6.007h-.58zM191.328 23.023c1.708 0 3.088 1.322 3.088 3.124 0 1.791-1.358 3.124-3.088 3.124-1.719 0-3.088-1.332-3.088-3.124 0-1.802 1.391-3.124 3.088-3.124zm0 .556c-1.38 0-2.497 1.059-2.497 2.567 0 1.485 1.106 2.567 2.497 2.567s2.496-1.081 2.496-2.567c0-1.496-1.117-2.567-2.496-2.567zM12.811.344v3.784H8.376v13.417H4.434V4.128H-.001V.344H12.81zM22.765 17.889c-4.952 0-8.968-3.883-8.968-8.945s4.016-8.945 8.968-8.945 8.968 3.883 8.968 8.945-4.016 8.945-8.968 8.945zm0-3.833c2.809 0 5.026-2.04 5.026-5.111s-2.217-5.111-5.026-5.111c-2.809 0-5.026 2.04-5.026 5.111s2.217 5.111 5.026 5.111zM52.184.344v17.201h-3.942V7.544l-4.459 7.298h-.443l-4.459-7.298v10.001h-3.942V.344h3.942l4.681 7.642L48.243.344h3.942zM70.078 17.545h-4.484l-5.519-7.962v7.962h-3.942V.344h3.942v7.47l5.272-7.47h4.484l-5.814 8.38 6.061 8.822zM72.542.344h3.942v17.201h-3.942V.344zM90.041.344h3.942v17.201h-2.957l-6.652-9.338v9.338h-3.942V.344h2.956l6.652 9.338V.344zM111.966.344c4.755 0 8.376 3.735 8.376 8.601s-3.621 8.601-8.376 8.601h-6.898V.345h6.898zm0 13.417c2.71 0 4.582-1.868 4.582-4.816s-1.872-4.816-4.582-4.816h-2.957v9.633h2.957zM127.487 13.761h6.898v3.784h-10.84V.344h10.717v3.784h-6.775v2.851h6.159v3.735h-6.159v3.047zM143.631 17.889c-3.621 0-5.937-1.72-6.898-4.251l3.4-1.966c.616 1.425 1.675 2.384 3.622 2.384 1.872 0 2.34-.737 2.34-1.401 0-1.057-.986-1.474-3.573-2.187-2.562-.713-5.075-1.941-5.075-5.234 0-3.317 2.809-5.234 5.789-5.234 2.833 0 5.051 1.352 6.307 3.883l-3.326 1.941c-.591-1.229-1.404-1.99-2.981-1.99-1.232 0-1.847.614-1.847 1.302 0 .786.419 1.327 3.104 2.138 2.612.786 5.544 1.696 5.544 5.332 0 3.317-2.661 5.283-6.406 5.283zM152.872.344h3.942v17.201h-3.942V.344zM177.836 7.962v1.474c0 5.259-3.671 8.453-8.5 8.453-5.42 0-9.313-3.981-9.313-8.92 0-4.988 3.966-8.969 9.042-8.969 3.301 0 6.085 1.622 7.539 3.932l-3.351 1.917c-.715-1.13-2.267-2.015-4.214-2.015-2.907 0-5.075 2.138-5.075 5.16 0 2.924 2.07 5.062 5.42 5.062 2.291 0 3.794-1.007 4.41-2.654h-4.607v-3.44h8.648zM190.653.344h3.942v17.201h-2.956l-6.653-9.338v9.338h-3.942V.344h2.957l6.652 9.338V.344z"/>
    </symbol>
    <symbol id="icon-telegram_footer" viewBox="0 0 31 32">
      <path d="M15.533.693C7.115.693.283 7.525.283 15.943s6.832 15.25 15.25 15.25 15.25-6.832 15.25-15.25S23.951.693 15.533.693zm7.076 10.37c-.229 2.41-1.22 8.266-1.723 10.965-.213 1.144-.64 1.525-1.037 1.571-.884.076-1.556-.58-2.41-1.144-1.342-.884-2.105-1.434-3.401-2.288-1.51-.991-.534-1.54.335-2.425.229-.229 4.133-3.782 4.209-4.102a.305.305 0 0 0-.076-.275c-.091-.076-.213-.046-.32-.031-.137.031-2.272 1.449-6.436 4.255-.61.412-1.159.625-1.647.61-.549-.015-1.586-.305-2.364-.564-.961-.305-1.708-.473-1.647-1.007.03-.274.412-.549 1.129-.839 4.453-1.937 7.412-3.218 8.891-3.828 4.24-1.769 5.109-2.074 5.688-2.074.122 0 .412.031.595.183.153.122.198.29.213.412-.015.091.015.366 0 .579z"/>
    </symbol>
    <symbol id="icon-youtube_footer" viewBox="0 0 43 32">
      <path d="m17.584 22.424 11.024-6.414-11.024-6.414v12.828zm24.555-16.74c.276 1.005.467 2.352.595 4.062.149 1.71.212 3.186.212 4.468l.127 1.796c0 4.682-.34 8.124-.935 10.326-.531 1.924-1.763 3.164-3.675 3.699-.998.278-2.825.47-5.629.599-2.761.15-5.289.214-7.626.214l-3.377.128c-8.9 0-14.444-.342-16.632-.941-1.912-.535-3.144-1.774-3.675-3.699-.276-1.005-.467-2.352-.595-4.062a51.631 51.631 0 0 1-.212-4.468L.59 16.01c0-4.682.34-8.124.935-10.326C2.056 3.76 3.288 2.52 5.2 1.985c.998-.278 2.825-.47 5.629-.599 2.761-.15 5.289-.214 7.626-.214l3.377-.128c8.9 0 14.444.342 16.632.941 1.912.534 3.144 1.774 3.675 3.699z"/>
    </symbol>
  </defs>
</svg>
